<?xml version="1.0" encoding="iso-8859-1"?>
<!-- Generator: Adobe Illustrator 19.0.0, SVG Export Plug-In . SVG Version: 6.00 Build 0)  -->
<svg version="1.1" id="Capa_1" xmlns="http://www.w3.org/2000/svg" xmlns:xlink="http://www.w3.org/1999/xlink" x="0px" y="0px"
	 viewBox="0 0 468.293 468.293" style="enable-background:new 0 0 468.293 468.293;" xml:space="preserve">
<line style="fill:none;stroke:#27A2DB;stroke-miterlimit:10;" x1="468.293" y1="379.321" x2="14.873" y2="379.321"/>
<path style="fill:#44C4A1;" d="M461.627,343.43c-7.099-18.764-19.751-34.75-35.923-46.107c-16.294-11.542-36.17-18.332-57.65-18.332
	h-11.047l-70.415-74.068H125.335l-76.241,74.068H14.875C6.667,278.991,0,285.657,0,293.866v70.55
	c0,8.209,6.667,14.875,14.875,14.875h453.417C468.292,366.699,465.948,354.602,461.627,343.43z"/>
<rect x="168.173" y="219.065" style="fill:#27A2DB;" width="57.144" height="63.394"/>
<path style="fill:#E56353;" d="M20.431,313.124v32.034c0,2.839-2.346,5.185-5.185,5.185H0v-42.404h15.245
	C18.084,307.939,20.431,310.284,20.431,313.124z"/>
<path style="fill:#F7BE56;" d="M461.627,343.43h-35.923v-46.107C441.876,308.68,454.529,324.666,461.627,343.43z"/>
<g>
	<polygon style="fill:#27A2DB;" points="154.332,219.068 139.487,219.068 74.233,282.463 154.332,282.463 	"/>
	<polygon style="fill:#27A2DB;" points="239.153,282.463 331.596,282.463 271.328,219.068 239.153,219.068 	"/>
</g>
<circle style="fill:#2F4859;" cx="358.075" cy="374.264" r="47.722"/>
<circle style="fill:#64798A;" cx="358.075" cy="374.264" r="32.2"/>
<g>
	<circle style="fill:#EBF0F3;" cx="358.075" cy="374.264" r="8.679"/>
	<path style="fill:#EBF0F3;" d="M364.679,345.644c-0.287,6.423-3.133,11.467-6.61,11.467c-3.463,0-6.308-5.044-6.596-11.467
		c2.127-0.46,4.34-0.69,6.596-0.69L364.679,345.644z"/>
	<path style="fill:#EBF0F3;" d="M342.499,349.361c4.339,4.745,5.893,10.323,3.434,12.782c-2.449,2.449-8.027,0.894-12.772-3.445
		c1.179-1.829,2.581-3.556,4.176-5.152L342.499,349.361z"/>
	<path style="fill:#EBF0F3;" d="M329.444,367.673c6.423,0.287,11.467,3.133,11.467,6.61c0,3.463-5.044,6.308-11.467,6.596
		c-0.46-2.127-0.69-4.34-0.69-6.596L329.444,367.673z"/>
	<path style="fill:#EBF0F3;" d="M333.161,389.852c4.745-4.339,10.323-5.893,12.782-3.434c2.449,2.449,0.894,8.027-3.445,12.772
		c-1.829-1.179-3.556-2.581-5.152-4.176L333.161,389.852z"/>
	<path style="fill:#EBF0F3;" d="M351.473,402.907c0.287-6.423,3.133-11.467,6.61-11.467c3.463,0,6.308,5.044,6.596,11.467
		c-2.127,0.46-4.34,0.69-6.596,0.69L351.473,402.907z"/>
	<path style="fill:#EBF0F3;" d="M373.652,399.19c-4.339-4.745-5.893-10.323-3.434-12.782c2.449-2.449,8.027-0.894,12.772,3.445
		c-1.179,1.829-2.581,3.556-4.176,5.152L373.652,399.19z"/>
	<path style="fill:#EBF0F3;" d="M386.707,380.879c-6.423-0.287-11.467-3.133-11.467-6.61c0-3.463,5.044-6.308,11.467-6.596
		c0.46,2.127,0.69,4.34,0.69,6.596L386.707,380.879z"/>
	<path style="fill:#EBF0F3;" d="M382.99,358.699c-4.745,4.339-10.323,5.893-12.782,3.434c-2.449-2.449-0.894-8.027,3.445-12.772
		c1.829,1.179,3.556,2.581,5.152,4.176L382.99,358.699z"/>
</g>
<circle style="fill:#2F4859;" cx="97.28" cy="374.264" r="47.722"/>
<circle style="fill:#64798A;" cx="97.28" cy="374.264" r="32.2"/>
<g>
	<circle style="fill:#EBF0F3;" cx="97.28" cy="374.264" r="8.679"/>
	<path style="fill:#EBF0F3;" d="M103.899,345.644c-0.287,6.423-3.133,11.467-6.61,11.467c-3.463,0-6.308-5.044-6.596-11.467
		c2.127-0.46,4.34-0.69,6.596-0.69L103.899,345.644z"/>
	<path style="fill:#EBF0F3;" d="M81.719,349.361c4.339,4.745,5.893,10.323,3.434,12.782c-2.449,2.449-8.027,0.894-12.772-3.445
		c1.179-1.829,2.581-3.556,4.176-5.152L81.719,349.361z"/>
	<path style="fill:#EBF0F3;" d="M68.664,367.673c6.423,0.287,11.467,3.133,11.467,6.61c0,3.463-5.044,6.308-11.467,6.596
		c-0.46-2.127-0.69-4.34-0.69-6.596L68.664,367.673z"/>
	<path style="fill:#EBF0F3;" d="M72.382,389.852c4.745-4.339,10.323-5.893,12.782-3.434c2.449,2.449,0.894,8.027-3.445,12.772
		c-1.829-1.179-3.556-2.581-5.152-4.176L72.382,389.852z"/>
	<path style="fill:#EBF0F3;" d="M90.693,402.907c0.287-6.423,3.133-11.467,6.61-11.467c3.463,0,6.308,5.044,6.596,11.467
		c-2.127,0.46-4.34,0.69-6.596,0.69L90.693,402.907z"/>
	<path style="fill:#EBF0F3;" d="M112.873,399.19c-4.339-4.745-5.893-10.323-3.434-12.782c2.449-2.449,8.027-0.894,12.772,3.445
		c-1.179,1.829-2.581,3.556-4.176,5.152L112.873,399.19z"/>
	<path style="fill:#EBF0F3;" d="M125.927,380.879c-6.423-0.287-11.467-3.133-11.467-6.61c0-3.463,5.044-6.308,11.467-6.596
		c0.46,2.127,0.69,4.34,0.69,6.596L125.927,380.879z"/>
	<path style="fill:#EBF0F3;" d="M122.21,358.699c-4.745,4.339-10.323,5.893-12.782,3.434c-2.449-2.449-0.894-8.027,3.445-12.772
		c1.829,1.179,3.556,2.581,5.152,4.176L122.21,358.699z"/>
</g>
<g>
	<path style="fill:#64798A;" d="M107.718,87.21c-15.544-0.558-28.366,13.011-28.366,29.8s12.822,30.358,28.366,29.8l184.335-9.66
		V96.871L107.718,87.21z"/>
	<path style="fill:#64798A;" d="M358.9,155.927h46.97c-12.653,19.134-34.379,31.788-59.007,31.788
		c-39.07,0-70.735-31.664-70.735-70.673c0-39.071,31.665-70.735,70.735-70.735c24.627,0,46.354,12.653,59.007,31.788H358.9
		l-36.479,38.947L358.9,155.927z"/>
</g>
<g>
</g>
<g>
</g>
<g>
</g>
<g>
</g>
<g>
</g>
<g>
</g>
<g>
</g>
<g>
</g>
<g>
</g>
<g>
</g>
<g>
</g>
<g>
</g>
<g>
</g>
<g>
</g>
<g>
</g>
</svg>
