<?xml version="1.0" encoding="iso-8859-1"?>
<!-- Generator: Adobe Illustrator 19.0.0, SVG Export Plug-In . SVG Version: 6.00 Build 0)  -->
<svg version="1.1" id="Layer_1" xmlns="http://www.w3.org/2000/svg" xmlns:xlink="http://www.w3.org/1999/xlink" x="0px" y="0px"
	 viewBox="0 0 512 512" style="enable-background:new 0 0 512 512;" xml:space="preserve">
<circle style="fill:#E04F5F;" cx="256" cy="256" r="256"/>
<path style="fill:#F0F1F1;" d="M367.709,181.965c0-41.891-27.089-74.91-60.509-74.91c-21.592,0-40.49,11.348-51.2,28.365
	c-10.71-17.017-29.608-28.365-51.2-28.365c-33.42,0-60.509,33.019-60.509,74.91c0,45.312,14.545,74.226,33.117,92.756
	c-9.169,21.625-14.499,47.276-14.499,74.808c0,14.429,1.457,28.355,4.18,41.467c1.178,5.669,6.172,9.733,11.962,9.733
	c6.512,0,11.962-4.873,12.67-11.348c5.059-46.392,31.916-81.743,64.279-81.743c32.447,0,59.364,35.537,64.321,82.111
	c0.666,6.246,5.935,10.98,12.214,10.98c6.046,0,11.255-4.264,12.47-10.184c2.662-12.982,4.087-26.75,4.087-41.016
	c0-27.532-5.329-53.183-14.499-74.808C353.164,256.191,367.709,227.277,367.709,181.965z"/>
<path style="fill:#FFFFFF;" d="M204.8,107.055c-33.42,0-60.509,33.019-60.509,74.91c0,45.312,14.545,74.226,33.117,92.756
	c-9.165,21.625-14.499,47.276-14.499,74.808c0,14.429,1.457,28.355,4.175,41.467c1.178,5.669,6.172,9.733,11.962,9.733
	c6.507,0,11.962-4.873,12.67-11.348c5.059-46.392,31.921-81.743,64.284-81.743V135.419
	C245.29,118.402,226.392,107.055,204.8,107.055z"/>
<path style="fill:#FA5655;" d="M302.545,195.928h-27.927v-27.927c0-5.143-4.166-9.309-9.309-9.309h-18.618
	c-5.139,0-9.309,4.166-9.309,9.309v27.927h-27.927c-5.139,0-9.309,4.166-9.309,9.309v18.618c0,5.139,4.17,9.309,9.309,9.309h27.927
	v27.927c0,5.139,4.17,9.309,9.309,9.309h18.618c5.143,0,9.309-4.17,9.309-9.309v-27.927h27.927c5.143,0,9.309-4.17,9.309-9.309
	v-18.618C311.855,200.094,307.689,195.928,302.545,195.928z"/>
<g>
</g>
<g>
</g>
<g>
</g>
<g>
</g>
<g>
</g>
<g>
</g>
<g>
</g>
<g>
</g>
<g>
</g>
<g>
</g>
<g>
</g>
<g>
</g>
<g>
</g>
<g>
</g>
<g>
</g>
</svg>
