<?xml version="1.0" encoding="iso-8859-1"?>
<!-- Generator: Adobe Illustrator 19.0.0, SVG Export Plug-In . SVG Version: 6.00 Build 0)  -->
<svg version="1.1" id="Capa_1" xmlns="http://www.w3.org/2000/svg" xmlns:xlink="http://www.w3.org/1999/xlink" x="0px" y="0px"
	 viewBox="0 0 512 512" style="enable-background:new 0 0 512 512;" xml:space="preserve">
<path style="fill:#34ABE0;" d="M512,256c0,8.694-0.428,17.283-1.285,25.757c-4.347,43.541-19.613,83.874-43.008,118.209
	C421.637,467.592,344.001,512,256,512S90.363,467.592,44.293,399.966c-8.589-12.612-16.091-26.039-22.34-40.135
	c-7.513-16.875-13.249-34.722-16.959-53.29C1.714,290.2,0,273.303,0,256c0-11.034,0.7-21.901,2.058-32.569
	c1.118-8.84,2.685-17.533,4.692-26.07c6.75-28.829,18.38-55.787,33.97-79.945c6.008-9.32,12.601-18.213,19.738-26.645
	C107.416,35.255,177.591,0,256,0c65.943,0,126.046,24.921,171.426,65.881c7.043,6.343,13.73,13.072,20.02,20.156
	c28.714,32.319,49.371,71.973,58.807,115.785C510.015,219.282,512,237.411,512,256z"/>
<g>
	<path style="fill:#78CAEF;" d="M235.207,174.613c2.403,2.403,3.897,5.736,3.897,9.415c0,7.367-5.966,13.333-13.322,13.333h-1.306
		c-3.678,0-7.011,1.494-9.415,3.897c-2.414,2.414-3.908,5.747-3.908,9.425c0,7.356-5.966,13.322-13.322,13.322H5.956
		c-1.358,0-2.664-0.199-3.897-0.575c1.118-8.84,2.685-17.533,4.692-26.07h39.706c3.678,0,7.011-1.494,9.425-3.908
		c2.403-2.414,3.897-5.736,3.897-9.425c0-7.356-5.966-13.322-13.322-13.322H35.15c-3.678,0-7.011-1.484-9.425-3.897
		c-2.403-2.414-3.897-5.736-3.897-9.425c0-7.356,5.966-13.322,13.322-13.322h37.418c3.678,0,7.011-1.494,9.415-3.908
		c2.414-2.403,3.908-5.736,3.908-9.415c0-7.356-5.966-13.322-13.322-13.322H40.72c6.008-9.32,12.601-18.213,19.738-26.645h134.238
		c3.678,0,7.011,1.494,9.415,3.908c2.414,2.403,3.908,5.736,3.908,9.415c0,7.356,5.966,13.322,13.322,13.322h4.441
		c7.356,0,13.322,5.966,13.322,13.322s-5.966,13.322-13.322,13.322h-24.419c-3.688,0-7.011,1.494-9.425,3.908
		c-2.414,2.403-3.897,5.736-3.897,9.415c0,7.367,5.956,13.322,13.322,13.322h24.419C229.46,170.705,232.793,172.199,235.207,174.613
		z"/>
	<path style="fill:#78CAEF;" d="M512,256c0,8.694-0.428,17.283-1.285,25.757h-78.921c-3.678,0-7.011-1.494-9.425-3.908
		c-2.403-2.403-3.897-5.736-3.897-9.415c0-7.356,5.966-13.322,13.322-13.322h3.699c3.678,0,7.011-1.494,9.425-3.908
		c2.403-2.403,3.897-5.736,3.897-9.415c0-7.356-5.956-13.322-13.322-13.322h-36.31c-3.678,0-7.011-1.494-9.415-3.908
		c-2.414-2.403-3.908-5.736-3.908-9.415c0-7.356,5.966-13.322,13.322-13.322h107.071C510.015,219.282,512,237.411,512,256z"/>
	<path style="fill:#78CAEF;" d="M470.058,132.493c0,7.367-5.966,13.322-13.322,13.322H330.167c-3.678,0-7.011-1.484-9.425-3.897
		c-2.403-2.414-3.897-5.736-3.897-9.425c0-7.356-5.966-13.322-13.322-13.322h-63.655c-3.678,0-7.011-1.494-9.425-3.908
		c-2.403-2.403-3.897-5.736-3.897-9.415c0-7.356,5.956-13.322,13.322-13.322h42.924c3.678,0,7.011-1.494,9.425-3.908
		c2.403-2.403,3.897-5.736,3.897-9.415c0-7.356,5.966-13.322,13.333-13.322h117.979c7.043,6.343,13.73,13.072,20.02,20.156
		c-2.32,3.887-6.572,6.489-11.431,6.489H393.08c-7.356,0-13.322,5.966-13.322,13.322c0,7.356,5.966,13.322,13.322,13.322h63.655
		c3.678,0,7.011,1.494,9.415,3.908C468.564,125.482,470.058,128.815,470.058,132.493z"/>
	<path style="fill:#78CAEF;" d="M99.934,346.509c0,7.356-5.966,13.322-13.322,13.322H21.953
		c-7.513-16.875-13.249-34.722-16.959-53.29h54.972c7.356,0,13.322,5.956,13.322,13.322c0,3.678,1.494,7.011,3.908,9.415
		c2.403,2.414,5.736,3.908,9.415,3.908c3.678,0,7.011,1.494,9.415,3.908C98.44,339.498,99.934,342.831,99.934,346.509z"/>
</g>
<path style="fill:#E8DBC4;" d="M427.75,171.76H84.24C84.24,76.894,161.134,0,256,0C350.856,0,427.75,76.894,427.75,171.76z"/>
<rect x="85.159" y="173.328" style="fill:#D6C8B0;" width="341.661" height="48.588"/>
<path style="fill:#E8DBC4;" d="M467.707,221.915v178.051c-28.787,42.266-69.914,75.452-118.188,94.396
	c-6.489,2.55-13.113,4.848-19.853,6.865C306.333,508.238,281.61,512,256,512s-50.333-3.762-73.665-10.773
	c-6.74-2.017-13.364-4.305-19.853-6.855c-15.569-6.102-30.386-13.688-44.283-22.591c-3.542-2.267-7.022-4.618-10.449-7.053
	c-3.365-2.403-6.677-4.88-9.927-7.44c-20.637-16.238-38.713-35.579-53.53-57.323V221.915L467.707,221.915L467.707,221.915z"/>
<rect x="370.939" y="303.407" style="fill:#5C5E70;" width="65.825" height="103.445"/>
<path style="fill:#797B89;" d="M417.844,372.266L417.844,372.266c-3.463,0-6.269-2.807-6.269-6.269v-38.661
	c0-3.463,2.807-6.269,6.269-6.269l0,0c3.463,0,6.269,2.807,6.269,6.269v38.661C424.114,369.459,421.307,372.266,417.844,372.266z"/>
<rect x="75.233" y="303.407" style="fill:#5C5E70;" width="65.825" height="103.445"/>
<path style="fill:#797B89;" d="M122.138,372.266L122.138,372.266c-3.463,0-6.269-2.807-6.269-6.269v-38.661
	c0-3.463,2.807-6.269,6.269-6.269l0,0c3.463,0,6.269,2.807,6.269,6.269v38.661C128.408,369.459,125.601,372.266,122.138,372.266z"/>
<rect x="44.293" y="237.578" style="fill:#D6C8B0;" width="423.414" height="34.48"/>
<path style="fill:#E8DBC4;" d="M472.811,248.153H39.189c-7.245,0-13.119-5.873-13.119-13.119l0,0
	c0-7.245,5.873-13.119,13.119-13.119h433.622c7.245,0,13.119,5.873,13.119,13.119l0,0
	C485.93,242.279,480.056,248.153,472.811,248.153z"/>
<path style="fill:#D6C8B0;" d="M73.153,235.034c0-7.245,5.873-13.119,13.119-13.119H39.189c-7.245,0-13.119,5.873-13.119,13.119
	c0,7.245,5.873,13.119,13.119,13.119h47.083C79.027,248.153,73.153,242.279,73.153,235.034z"/>
<path style="fill:#C69A6A;" d="M118.199,339.456v132.326c-3.542-2.267-7.022-4.618-10.449-7.053c-3.365-2.403-6.677-4.88-9.927-7.44
	V339.456H118.199z"/>
<path style="fill:#B58657;" d="M107.75,339.456v125.273c-3.365-2.403-6.677-4.88-9.927-7.44V339.456H107.75z"/>
<path style="fill:#D6C8B0;" d="M349.518,358.045v136.317c-6.489,2.55-13.113,4.848-19.853,6.865C306.333,508.238,281.61,512,256,512
	s-50.333-3.762-73.665-10.773c-6.74-2.017-13.364-4.305-19.853-6.855V329.007h157.999
	C336.488,329.007,349.518,342.037,349.518,358.045z"/>
<path style="fill:#5C5E70;" d="M329.665,358.045v143.182C306.333,508.238,281.61,512,256,512s-50.333-3.762-73.665-10.773V348.86
	h138.146C325.554,348.86,329.665,352.972,329.665,358.045z"/>
<rect x="118.199" y="344.158" style="fill:#FF525D;" width="123.81" height="86.204"/>
<path style="fill:#797B89;" d="M311.38,483.025h-6.269c-3.463,0-6.269-2.807-6.269-6.269V373.833c0-3.463,2.807-6.269,6.269-6.269
	h6.269c3.463,0,6.269,2.807,6.269,6.269v102.922C317.649,480.218,314.842,483.025,311.38,483.025z"/>
<path style="fill:#D6C8B0;" d="M191.216,169.556c0.199,0.752,0.397,1.484,0.575,2.205H84.24C84.24,76.894,161.134,0,256,0
	C256,0,159.869,54.617,191.216,169.556z"/>
<g>
	<circle style="fill:#F9EED7;" cx="352.131" cy="80.739" r="27.167"/>
	<circle style="fill:#F9EED7;" cx="316.353" cy="47.794" r="15.927"/>
	<path style="fill:#F9EED7;" d="M445.649,239.149H341.847c-3.751,0-6.792-3.041-6.792-6.792l0,0c0-3.751,3.041-6.792,6.792-6.792
		h103.802c3.751,0,6.792,3.041,6.792,6.792l0,0C452.441,236.108,449.4,239.149,445.649,239.149z"/>
</g>
<path style="fill:#C69A6A;" d="M338.395,317.931H173.605c-7.008,0-12.69-5.681-12.69-12.69v-27.91c0-7.008,5.681-12.69,12.69-12.69
	h164.792c7.008,0,12.69,5.681,12.69,12.69v27.91C351.086,312.25,345.405,317.931,338.395,317.931z"/>
<g>
	<path style="fill:#F9EED7;" d="M179.182,291.042h5.002c0.856,0,1.35,0.822,1.35,1.712c0,0.757-0.428,1.645-1.35,1.645h-5.002v6.614
		h9.313c0.856,0,1.349,0.889,1.349,1.909c0,0.889-0.427,1.843-1.349,1.843H176.78c-0.954,0-1.876-0.461-1.876-1.349v-21.358
		c0-0.888,0.922-1.349,1.876-1.349h11.715c0.922,0,1.349,0.954,1.349,1.843c0,1.021-0.493,1.909-1.349,1.909h-9.313V291.042z"/>
	<path style="fill:#F9EED7;" d="M208.276,296.108c-0.363,0.658-0.922,0.856-1.448,0.856s-1.053-0.197-1.415-0.856L201.629,289
		v14.414c0,0.888-1.086,1.349-2.139,1.349c-1.086,0-2.139-0.461-2.139-1.349v-20.569c0-1.58,1.053-2.139,2.139-2.139
		c1.546,0,2.238,0.329,3.324,2.271l4.048,7.372l4.048-7.372c1.086-1.94,1.81-2.271,3.356-2.271c1.087,0,2.14,0.559,2.14,2.139
		v20.569c0,0.888-1.087,1.349-2.14,1.349c-1.086,0-2.139-0.461-2.139-1.349v-14.151L208.276,296.108z"/>
	<path style="fill:#F9EED7;" d="M225.359,282.057c0-0.888,0.922-1.349,1.876-1.349h6.351c3.422,0,6.615,1.119,6.615,5.792
		c0,2.699-1.053,4.475-2.798,5.233c2.008,0.79,3.39,2.073,3.39,5.365v0.691c0,5.134-2.863,6.977-6.582,6.977h-6.977
		c-1.153,0-1.876-0.626-1.876-1.317v-21.391H225.359z M229.604,290.053h3.685c1.777,0,2.633-1.153,2.633-2.83
		c0-1.712-0.986-2.765-2.666-2.765h-3.653V290.053z M233.323,301.012c2.008,0,3.193-1.086,3.193-3.587v-0.527
		c0-2.566-1.185-3.488-3.193-3.488h-3.719v7.601h3.719V301.012z"/>
	<path style="fill:#F9EED7;" d="M247.18,302.986c0-0.066,0.032-0.196,0.066-0.328l6.351-20.699c0.296-0.987,1.513-1.448,2.731-1.448
		c1.25,0,2.467,0.46,2.765,1.448l6.351,20.699c0.032,0.132,0.066,0.231,0.066,0.328c0,1.021-1.545,1.777-2.698,1.777
		c-0.724,0-1.284-0.231-1.448-0.856l-1.251-4.376h-7.536l-1.25,4.376c-0.165,0.626-0.724,0.856-1.448,0.856
		C248.726,304.763,247.18,304.039,247.18,302.986z M259.191,296.175l-2.862-10.103l-2.863,10.103H259.191z"/>
	<path style="fill:#F9EED7;" d="M282.757,298.347c0-4.936-10.564-3.422-10.564-11.221c0-4.903,4.212-6.582,7.997-6.582
		c1.941,0,6.253,0.46,6.253,2.633c0,0.758-0.527,2.271-1.712,2.271c-1.021,0-1.777-1.25-4.542-1.25c-2.37,0-3.719,0.954-3.719,2.534
		c0,4.08,10.563,2.666,10.563,11.189c0,4.706-3.29,7.141-7.831,7.141c-4.311,0-7.602-2.171-7.602-4.08
		c0-0.922,0.855-2.303,1.876-2.303c1.349,0,2.238,2.534,5.594,2.534C281.046,301.21,282.757,300.321,282.757,298.347z"/>
	<path style="fill:#F9EED7;" d="M304.939,298.347c0-4.936-10.563-3.422-10.563-11.221c0-4.903,4.212-6.582,7.997-6.582
		c1.94,0,6.252,0.46,6.252,2.633c0,0.758-0.527,2.271-1.712,2.271c-1.021,0-1.776-1.25-4.541-1.25c-2.37,0-3.72,0.954-3.72,2.534
		c0,4.08,10.564,2.666,10.564,11.189c0,4.706-3.29,7.141-7.833,7.141c-4.311,0-7.602-2.171-7.602-4.08
		c0-0.922,0.856-2.303,1.877-2.303c1.349,0,2.238,2.534,5.594,2.534C303.227,301.21,304.939,300.321,304.939,298.347z"/>
	<path style="fill:#F9EED7;" d="M322.482,295.122c0-0.165-0.032-0.329-0.099-0.428l-6.813-11.78
		c-0.066-0.164-0.098-0.329-0.098-0.427c0-1.053,1.677-1.777,2.83-1.777c0.691,0,1.021,0.263,1.317,0.856l5.002,9.511l5.034-9.511
		c0.297-0.56,0.592-0.856,1.284-0.856c1.153,0,2.831,0.724,2.831,1.777c0,0.098,0,0.263-0.099,0.427l-6.779,11.78
		c-0.066,0.099-0.132,0.263-0.132,0.428v8.293c0,0.888-1.053,1.349-2.139,1.349c-1.053,0-2.139-0.461-2.139-1.349v-8.293H322.482z"
		/>
</g>
<g>
	<rect x="77.458" y="110.289" style="fill:#C69A6A;" width="357.073" height="17.476"/>
	<rect x="408.555" y="118.356" style="fill:#C69A6A;" width="8.359" height="43.886"/>
	<rect x="384.366" y="118.356" style="fill:#C69A6A;" width="8.359" height="43.886"/>
	<rect x="360.166" y="118.356" style="fill:#C69A6A;" width="8.359" height="43.886"/>
	<rect x="335.976" y="118.356" style="fill:#C69A6A;" width="8.359" height="43.886"/>
	<rect x="311.777" y="118.356" style="fill:#C69A6A;" width="8.359" height="43.886"/>
	<rect x="287.587" y="118.356" style="fill:#C69A6A;" width="8.359" height="43.886"/>
	<rect x="263.398" y="118.356" style="fill:#C69A6A;" width="8.359" height="43.886"/>
	<rect x="239.198" y="118.356" style="fill:#C69A6A;" width="8.359" height="43.886"/>
	<rect x="215.009" y="118.356" style="fill:#C69A6A;" width="8.359" height="43.886"/>
	<rect x="190.819" y="118.356" style="fill:#C69A6A;" width="8.359" height="43.886"/>
	<rect x="166.619" y="118.356" style="fill:#C69A6A;" width="8.359" height="43.886"/>
	<rect x="142.43" y="118.356" style="fill:#C69A6A;" width="8.359" height="43.886"/>
	<rect x="118.23" y="118.356" style="fill:#C69A6A;" width="8.359" height="43.886"/>
	<rect x="94.041" y="118.356" style="fill:#C69A6A;" width="8.359" height="43.886"/>
</g>
<path style="fill:#E8DBC4;" d="M444.594,187.431H67.399c-8.727,0-15.802-7.075-15.802-15.802l0,0
	c0-8.727,7.075-15.802,15.802-15.802h377.195c8.727,0,15.802,7.075,15.802,15.802l0,0
	C460.396,180.356,453.322,187.431,444.594,187.431z"/>
<path style="fill:#D6C8B0;" d="M94.438,171.629L94.438,171.629c0-8.728,7.075-15.802,15.802-15.802H67.399
	c-8.727,0-15.802,7.075-15.802,15.802l0,0c0,8.727,7.075,15.802,15.802,15.802h42.841
	C101.513,187.431,94.438,180.356,94.438,171.629z"/>
<path style="fill:#F9EED7;" d="M418.482,175.825h-57.469c-3.751,0-6.792-3.041-6.792-6.792l0,0c0-3.751,3.041-6.792,6.792-6.792
	h57.469c3.751,0,6.792,3.041,6.792,6.792l0,0C425.273,172.784,422.233,175.825,418.482,175.825z"/>
<g>
</g>
<g>
</g>
<g>
</g>
<g>
</g>
<g>
</g>
<g>
</g>
<g>
</g>
<g>
</g>
<g>
</g>
<g>
</g>
<g>
</g>
<g>
</g>
<g>
</g>
<g>
</g>
<g>
</g>
</svg>
