<?xml version="1.0" encoding="iso-8859-1"?>
<!-- Generator: Adobe Illustrator 19.0.0, SVG Export Plug-In . SVG Version: 6.00 Build 0)  -->
<svg version="1.1" id="Layer_1" xmlns="http://www.w3.org/2000/svg" xmlns:xlink="http://www.w3.org/1999/xlink" x="0px" y="0px"
	 viewBox="0 0 512 512" style="enable-background:new 0 0 512 512;" xml:space="preserve">
<circle style="fill:#273B7A;" cx="256" cy="256" r="256"/>
<path style="fill:#121149;" d="M275.299,511.279c128.491-9.578,230.55-114.002,236.42-243.493L362.824,120.879L174.266,304.897
	l-32.044,7.992l15.531,15.531l-3.679,3.665l31.106,31.106l-19.409,38.559L275.299,511.279z"/>
<path style="fill:#FEE187;" d="M347.057,396.316l-28.444-85.333c-0.822-2.465-3.125-4.127-5.723-4.127H199.111
	c-2.598,0-4.903,1.662-5.723,4.127l-28.444,85.333c-0.612,1.839-0.305,3.862,0.829,5.435c1.133,1.572,2.955,2.505,4.894,2.505
	h170.667c1.939,0,3.762-0.933,4.894-2.505C347.362,400.177,347.669,398.155,347.057,396.316z M203.459,318.923h105.081l13.215,39.65
	H190.242L203.459,318.923z M179.038,392.189l7.184-21.549h139.557l7.184,21.549H179.038z"/>
<path style="fill:#FFC61B;" d="M347.057,396.316l-28.444-85.333c-0.822-2.465-3.125-4.127-5.723-4.127h-58.035v12.067h53.688
	l13.215,39.65h-66.903v12.067h70.925l7.184,21.549h-78.108v12.067h86.48c1.939,0,3.762-0.933,4.894-2.505
	C347.362,400.177,347.669,398.155,347.057,396.316z"/>
<path style="fill:#E09112;" d="M365.468,173.899H146.532V315.02c0,12.748,10.335,23.081,23.081,23.081h172.772
	c12.748,0,23.081-10.335,23.081-23.081L365.468,173.899z"/>
<g>
	<path style="fill:#FF5419;" d="M254.852,173.899v164.202h87.535c12.748,0,23.081-10.335,23.081-23.081V173.899L254.852,173.899
		L254.852,173.899z"/>
	<path style="fill:#FF5419;" d="M142.222,312.889h227.556v-175.12c0-13.25-10.74-23.992-23.99-23.992H166.214
		c-13.25,0-23.992,10.742-23.992,23.992V312.889z"/>
</g>
<path style="fill:#C92F00;" d="M369.778,137.769c0-13.252-10.74-23.992-23.99-23.992h-90.936v199.111h114.926V137.769z"/>
<rect x="142.222" y="146.532" style="fill:#FFFFFF;" width="108.037" height="109.468"/>
<rect x="261.741" y="146.532" style="fill:#D0D1D3;" width="108.037" height="109.468"/>
<circle style="fill:#FFEDB5;" cx="168.288" cy="281.859" r="14.222"/>
<circle style="fill:#FEE187;" cx="343.695" cy="281.859" r="14.222"/>
<g>
</g>
<g>
</g>
<g>
</g>
<g>
</g>
<g>
</g>
<g>
</g>
<g>
</g>
<g>
</g>
<g>
</g>
<g>
</g>
<g>
</g>
<g>
</g>
<g>
</g>
<g>
</g>
<g>
</g>
</svg>
